<svg width="57" height="56" viewBox="0 0 57 56" fill="none" xmlns="http://www.w3.org/2000/svg">
<circle cx="28.5" cy="28" r="28" fill="#37373C"/>
<path d="M38.2725 34.7033C37.9062 35.5418 37.4727 36.3136 36.9704 37.0232C36.2857 37.9906 35.7251 38.6602 35.2931 39.032C34.6233 39.6424 33.9058 39.955 33.1374 39.9728C32.5857 39.9728 31.9205 39.8172 31.1461 39.5017C30.3692 39.1876 29.6552 39.032 29.0024 39.032C28.3177 39.032 27.5834 39.1876 26.7979 39.5017C26.0113 39.8172 25.3776 39.9816 24.893 39.9979C24.1562 40.0291 23.4217 39.7076 22.6886 39.032C22.2207 38.6276 21.6354 37.9343 20.9343 36.9521C20.182 35.9033 19.5636 34.687 19.0791 33.3004C18.5602 31.8026 18.3 30.3523 18.3 28.9482C18.3 27.3398 18.6508 25.9526 19.3532 24.7901C19.9053 23.8564 20.6398 23.1198 21.559 22.5791C22.4783 22.0383 23.4715 21.7628 24.5411 21.7452C25.1264 21.7452 25.8939 21.9246 26.8477 22.2771C27.7988 22.6309 28.4095 22.8103 28.6772 22.8103C28.8774 22.8103 29.5558 22.6005 30.7058 22.1823C31.7934 21.7945 32.7113 21.6339 33.4633 21.6972C35.5009 21.8601 37.0317 22.6561 38.0497 24.0901C36.2274 25.1843 35.326 26.7169 35.3439 28.6829C35.3603 30.2142 35.9209 31.4886 37.0227 32.5004C37.522 32.97 38.0796 33.333 38.7001 33.5907C38.5655 33.9774 38.4235 34.3477 38.2725 34.7033ZM33.5993 16.4801C33.5993 17.6804 33.1568 18.8011 32.2748 19.8384C31.2104 21.0716 29.9229 21.7841 28.5268 21.6717C28.509 21.5277 28.4987 21.3761 28.4987 21.2169C28.4987 20.0646 29.0049 18.8315 29.9038 17.8232C30.3526 17.3127 30.9234 16.8882 31.6155 16.5496C32.3062 16.2161 32.9595 16.0316 33.5739 16C33.5918 16.1605 33.5993 16.3209 33.5993 16.4801V16.4801Z" fill="#F1F4F7"/>
</svg>
