<svg width="57" height="56" viewBox="0 0 57 56" fill="none" xmlns="http://www.w3.org/2000/svg">
<circle cx="28.5" cy="28" r="28" fill="#37373C"/>
<g clip-path="url(#clip0_2_87389)">
<path fill-rule="evenodd" clip-rule="evenodd" d="M40.02 28.2727C40.02 27.4218 39.9436 26.6036 39.8018 25.8182H28.5V30.46H34.9582C34.68 31.96 33.8345 33.2309 32.5636 34.0818V37.0927H36.4418C38.7109 35.0036 40.02 31.9273 40.02 28.2727Z" fill="#4285F4"/>
<path fill-rule="evenodd" clip-rule="evenodd" d="M28.5 40C31.74 40 34.4564 38.9254 36.4418 37.0927L32.5636 34.0818C31.4891 34.8018 30.1145 35.2272 28.5 35.2272C25.3745 35.2272 22.7291 33.1163 21.7855 30.28H17.7764V33.3891C19.7509 37.3109 23.8091 40 28.5 40Z" fill="#34A853"/>
<path fill-rule="evenodd" clip-rule="evenodd" d="M21.7855 30.28C21.5455 29.56 21.4091 28.7909 21.4091 28C21.4091 27.2091 21.5455 26.44 21.7855 25.72V22.6109H17.7764C16.9636 24.2309 16.5 26.0636 16.5 28C16.5 29.9364 16.9636 31.7691 17.7764 33.3891L21.7855 30.28Z" fill="#FBBC05"/>
<path fill-rule="evenodd" clip-rule="evenodd" d="M28.5 20.7727C30.2618 20.7727 31.8436 21.3782 33.0873 22.5673L36.5291 19.1255C34.4509 17.1891 31.7345 16 28.5 16C23.8091 16 19.7509 18.6891 17.7764 22.6109L21.7855 25.72C22.7291 22.8836 25.3745 20.7727 28.5 20.7727Z" fill="#EA4335"/>
</g>
<defs>
<clipPath id="clip0_2_87389">
<rect x="16.5" y="16" width="24" height="24" rx="6" fill="white"/>
</clipPath>
</defs>
</svg>
