<svg width="614" height="608" viewBox="0 0 614 608" fill="none" xmlns="http://www.w3.org/2000/svg">
<g clip-path="url(#clip0_199_852)">
<path d="M373.767 342.622C366.01 326.586 356.158 312.123 343.37 299.755C335.3 291.895 325.762 285.92 314.442 283.824C303.646 281.833 294.213 286.549 289.391 296.401C287.714 299.86 286.247 303.424 284.779 306.987C273.879 333.713 257.528 356.876 236.565 376.581C213.611 398.171 190.342 400.792 165.187 384.546C153.448 377 142.861 378.572 132.066 385.489C118.545 394.189 107.539 405.613 97.7914 418.19C90.8737 427.099 85.4234 436.741 82.0693 447.537C79.1345 457.284 80.4971 466.193 87.4148 473.844C90.3496 477.093 93.494 480.132 96.8481 482.857C114.562 497.216 134.896 506.02 157.116 510.422C179.127 514.824 201.033 514.405 222.939 510.318C250.191 505.287 274.613 493.653 296.728 477.198C334.461 449.109 359.931 412.216 374.815 367.777C377.854 359.182 377.854 351.007 373.767 342.622ZM142.757 415.675C135.944 428.881 126.825 440.2 115.715 449.947C112.885 452.358 109.74 454.14 106.281 455.293C103.975 456.026 101.25 456.969 99.3636 455.083C97.5818 453.301 98.4203 450.786 99.0492 448.585C99.7829 446.279 100.517 443.868 101.67 441.772C109.74 427.623 119.488 414.731 131.961 404.041C134.476 401.944 137.411 400.163 140.241 398.695C145.377 395.97 146.53 396.809 146.53 402.678C146.53 407.395 144.853 411.692 142.757 415.675ZM353.118 352.789C346.62 352.265 341.903 350.273 337.92 347.129C327.229 338.744 318.53 328.683 311.402 317.154C310.459 315.686 309.83 314.009 309.306 312.437C308.467 309.607 306.79 306.253 309.306 304.052C311.612 302.061 314.966 303.214 317.796 304.157C325.133 306.673 330.583 311.913 335.929 317.154C342.217 323.233 347.668 330.045 352.699 337.067C354.481 339.583 355.948 342.413 357.101 345.347C359.197 350.588 357.311 352.998 353.118 352.789Z" fill="#F66F1E"/>
<path d="M146.635 402.783C146.53 407.395 144.958 411.692 142.861 415.675C136.049 428.881 126.93 440.2 115.819 449.947C112.989 452.358 109.845 454.14 106.386 455.293C104.08 456.026 101.355 456.969 99.4685 455.083C97.6866 453.301 98.5252 450.786 99.154 448.585C99.8877 446.279 100.621 443.868 101.774 441.772C109.845 427.623 119.593 414.731 132.066 404.041C134.581 401.944 137.516 400.163 140.346 398.695C145.482 396.075 146.635 396.914 146.635 402.783Z" fill="black"/>
<path d="M353.118 352.789C346.62 352.265 341.903 350.273 337.92 347.129C327.229 338.744 318.53 328.683 311.402 317.154C310.459 315.686 309.83 314.009 309.306 312.437C308.467 309.607 306.79 306.253 309.306 304.052C311.612 302.061 314.966 303.214 317.796 304.157C325.133 306.673 330.583 311.913 335.929 317.154C342.217 323.233 347.668 330.045 352.699 337.067C354.481 339.583 355.948 342.413 357.101 345.347C359.197 350.588 357.311 352.998 353.118 352.789Z" fill="black"/>
<path d="M535.494 322.918C536.123 369.454 520.925 409.176 491.892 443.764C481.201 456.445 469.462 458.961 453.53 450.891C429.842 438.837 413.596 419.657 402.8 395.761C399.551 388.634 400.18 380.878 404.582 373.751C411.5 362.641 419.57 352.265 424.601 340.107C435.816 313.066 420.514 277.326 392.214 269.57C375.968 265.063 371.146 256.679 369.993 240.433C368.421 218.947 373.767 198.509 381.837 178.805C386.868 166.542 399.551 160.568 413.805 162.14C436.131 164.656 454.997 175.032 471.872 188.972C505.832 217.165 526.585 253.01 533.398 296.925C534.866 305.939 535.599 314.953 535.494 322.918Z" fill="#F66F1E"/>
<path d="M424.496 390.311C428.689 390.73 432.882 392.407 436.76 394.818C448.184 402.049 458.142 410.958 466.527 421.439C468.728 424.164 469.986 427.518 470.824 430.872C472.082 435.693 470.405 437.37 465.374 436.532C459.504 435.693 454.683 432.444 449.861 429.3C439.275 422.173 430.052 413.474 422.295 403.202C420.933 401.421 419.885 399.429 418.941 397.333C417.055 392.302 418.732 390.101 424.496 390.311Z" fill="black"/>
<path d="M332.889 130.383C332.155 126.82 331.736 123.151 330.583 119.692C326.076 105.858 317.062 97.2632 302.179 95.5863C288.972 94.1189 275.765 93.6997 262.559 95.3767C205.75 102.609 164.348 133.108 134.791 181.006C123.995 198.509 117.392 217.794 114.247 238.127C111.522 251.648 111.312 265.168 112.151 278.898C112.675 288.226 113.828 297.554 116.343 306.568C118.964 315.896 123.68 324.176 133.323 328.263C137.306 330.884 141.813 332.141 146.53 332.456C157.326 333.19 168.122 332.98 178.813 331.198C191.809 329.207 204.282 325.434 215.497 318.516C225.979 312.123 230.171 303.528 227.97 292.733C227.132 288.855 225.979 284.977 224.931 281.099C222.52 267.369 224.511 254.163 229.333 241.376C231.324 238.127 233.106 234.669 235.202 231.524C245.579 215.803 269.686 205.846 286.456 211.506C297.776 215.279 305.742 211.191 312.241 203.33C324.504 188.448 330.583 171.154 332.784 152.183C333.308 144.952 333.518 137.72 332.889 130.383ZM198.937 306.044C186.15 311.913 172.419 314.219 158.374 314.848C152.19 314.848 146.111 314.848 140.555 311.704C135.944 309.083 135.734 306.777 140.241 304.367C157.745 295.144 176.087 288.96 196.212 290.951C201.138 291.475 207.741 292.628 208.475 297.973C209.209 302.585 202.815 304.262 198.937 306.044ZM318.425 149.039C316.852 158.682 315.909 168.429 312.241 177.443C310.983 180.482 309.62 183.521 307.943 186.351C306.79 188.448 305.742 191.382 302.912 190.858C300.292 190.334 299.873 187.295 299.244 184.989C297.881 179.958 297.567 174.717 297.672 169.477C297.986 158.053 299.768 146.943 302.912 136.043C304.17 131.641 306.476 127.763 309.411 124.199C312.136 120.845 314.127 121.369 315.804 124.933C318.949 132.794 318.529 140.864 318.425 149.039Z" fill="#F66F1E"/>
<path d="M198.937 306.044C186.149 311.913 172.419 314.219 158.374 314.848C152.19 314.848 146.111 314.848 140.555 311.704C135.944 309.083 135.734 306.777 140.241 304.367C157.745 295.144 176.087 288.96 196.212 290.951C201.138 291.475 207.741 292.628 208.475 297.973C209.209 302.585 202.815 304.262 198.937 306.044Z" fill="black"/>
<path d="M318.425 149.039C316.852 158.682 315.909 168.429 312.241 177.443C310.983 180.482 309.62 183.521 307.943 186.351C306.79 188.448 305.742 191.382 302.912 190.858C300.292 190.334 299.873 187.295 299.244 184.989C297.881 179.958 297.567 174.717 297.672 169.477C297.986 158.053 299.768 146.943 302.912 136.043C304.17 131.641 306.476 127.763 309.411 124.199C312.136 120.845 314.127 121.369 315.804 124.933C318.949 132.794 318.529 140.864 318.425 149.039Z" fill="black"/>
<path d="M598.278 167.8C589.578 167.8 582.556 160.778 582.556 152.079V86.4679C582.556 56.1779 557.925 31.4429 527.529 31.4429H458.037C449.337 31.4429 442.315 24.4206 442.315 15.7214C442.315 7.02224 449.337 0 458.037 0H527.529C575.219 0 614 38.7795 614 86.4679V152.183C614 160.778 606.977 167.8 598.278 167.8Z" fill="#F66F1E"/>
<path d="M15.7221 167.8C7.02253 167.8 0 160.778 0 152.079V86.4679C0 38.7795 38.7812 0 86.4715 0H155.963C164.663 0 171.685 7.02224 171.685 15.7214C171.685 24.4206 164.663 31.4429 155.963 31.4429H86.4715C56.0755 31.4429 31.4442 56.0731 31.4442 86.4679V152.183C31.4442 160.778 24.4216 167.8 15.7221 167.8Z" fill="#F66F1E"/>
<path d="M527.529 608H458.037C449.337 608 442.315 600.978 442.315 592.279C442.315 583.579 449.337 576.557 458.037 576.557H527.529C557.82 576.557 582.556 551.927 582.556 521.532V455.921C582.556 447.222 589.578 440.2 598.278 440.2C606.977 440.2 614 447.222 614 455.921V521.637C614 569.221 575.219 608 527.529 608Z" fill="#F66F1E"/>
<path d="M155.963 608H86.4715C38.7812 608 0 569.221 0 521.637V455.921C0 447.222 7.02253 440.2 15.7221 440.2C24.4216 440.2 31.4442 447.222 31.4442 455.921V521.637C31.4442 551.927 56.0755 576.662 86.4715 576.662H155.963C164.663 576.662 171.685 583.684 171.685 592.383C171.685 601.083 164.663 608 155.963 608Z" fill="#F66F1E"/>
</g>
<defs>
<clipPath id="clip0_199_852">
<rect width="614" height="608" fill="white"/>
</clipPath>
</defs>
</svg>
